<svg width="1600" height="900" viewBox="0 0 1600 900" xmlns="http://www.w3.org/2000/svg">
  <defs>
    <linearGradient id="bg" x1="0" y1="0" x2="1600" y2="900" gradientUnits="userSpaceOnUse">
      <stop stop-color="#070A12"/>
      <stop offset="0.55" stop-color="#0A1020"/>
      <stop offset="1" stop-color="#070913"/>
    </linearGradient>
    <radialGradient id="spot" cx="0" cy="0" r="1" gradientUnits="userSpaceOnUse" gradientTransform="translate(1240 220) rotate(135) scale(680 520)">
      <stop stop-color="#00FFD5" stop-opacity="0.22"/>
      <stop offset="0.45" stop-color="#8B5CFF" stop-opacity="0.14"/>
      <stop offset="1" stop-color="#000000" stop-opacity="0"/>
    </radialGradient>
    <linearGradient id="neon" x1="220" y1="160" x2="1380" y2="740" gradientUnits="userSpaceOnUse">
      <stop stop-color="#00FFD5"/>
      <stop offset="0.5" stop-color="#8B5CFF"/>
      <stop offset="1" stop-color="#FF3EBF"/>
    </linearGradient>
    <filter id="softGlow" x="-50%" y="-50%" width="200%" height="200%">
      <feGaussianBlur stdDeviation="16" result="b"/>
      <feColorMatrix in="b" type="matrix"
        values="1 0 0 0 0
                0 1 0 0 0
                0 0 1 0 0
                0 0 0 0.65 0" result="g"/>
      <feMerge>
        <feMergeNode in="g"/>
        <feMergeNode in="SourceGraphic"/>
      </feMerge>
    </filter>
  </defs>

  <rect width="1600" height="900" rx="48" fill="url(#bg)"/>
  <rect width="1600" height="900" rx="48" fill="url(#spot)"/>

  <!-- Film grain dots -->
  <g opacity="0.18" fill="#FFFFFF">
    <circle cx="180" cy="140" r="2"/><circle cx="260" cy="210" r="1.8"/><circle cx="340" cy="160" r="1.4"/>
    <circle cx="460" cy="120" r="1.6"/><circle cx="540" cy="210" r="1.2"/><circle cx="690" cy="150" r="1.5"/>
    <circle cx="820" cy="120" r="1.4"/><circle cx="980" cy="170" r="1.2"/><circle cx="1120" cy="130" r="1.6"/>
    <circle cx="1280" cy="190" r="1.4"/><circle cx="1460" cy="150" r="1.8"/>
  </g>

  <!-- Poster card -->
  <g filter="url(#softGlow)">
    <rect x="120" y="150" width="1360" height="620" rx="40" fill="#FFFFFF" opacity="0.045" stroke="#FFFFFF" stroke-opacity="0.12"/>

    <!-- Left: Film strip -->
    <g opacity="0.95">
      <rect x="165" y="205" width="260" height="510" rx="28" fill="#0B1020" stroke="#FFFFFF" stroke-opacity="0.12"/>
      <rect x="185" y="230" width="220" height="130" rx="18" fill="#FFFFFF" opacity="0.06"/>
      <rect x="185" y="378" width="220" height="130" rx="18" fill="#FFFFFF" opacity="0.06"/>
      <rect x="185" y="526" width="220" height="169" rx="18" fill="#FFFFFF" opacity="0.06"/>
      <!-- sprocket holes -->
      <g fill="#FFFFFF" opacity="0.20">
        <rect x="172" y="230" width="10" height="28" rx="4"/>
        <rect x="172" y="270" width="10" height="28" rx="4"/>
        <rect x="172" y="310" width="10" height="28" rx="4"/>
        <rect x="172" y="378" width="10" height="28" rx="4"/>
        <rect x="172" y="418" width="10" height="28" rx="4"/>
        <rect x="172" y="458" width="10" height="28" rx="4"/>
        <rect x="172" y="526" width="10" height="28" rx="4"/>
        <rect x="172" y="566" width="10" height="28" rx="4"/>
        <rect x="172" y="606" width="10" height="28" rx="4"/>

        <rect x="408" y="230" width="10" height="28" rx="4"/>
        <rect x="408" y="270" width="10" height="28" rx="4"/>
        <rect x="408" y="310" width="10" height="28" rx="4"/>
        <rect x="408" y="378" width="10" height="28" rx="4"/>
        <rect x="408" y="418" width="10" height="28" rx="4"/>
        <rect x="408" y="458" width="10" height="28" rx="4"/>
        <rect x="408" y="526" width="10" height="28" rx="4"/>
        <rect x="408" y="566" width="10" height="28" rx="4"/>
        <rect x="408" y="606" width="10" height="28" rx="4"/>
      </g>
    </g>

    <!-- Right: Title + cinema icons -->
    <g>
      <!-- clapperboard -->
      <g transform="translate(520 250)">
        <rect x="0" y="56" width="210" height="140" rx="22" fill="#FFFFFF" opacity="0.07" stroke="#FFFFFF" stroke-opacity="0.14"/>
        <path d="M12 58L198 58C206 58 210 62 210 70V86H0V70C0 62 4 58 12 58Z" fill="url(#neon)" opacity="0.90"/>
        <path d="M25 72L55 56M70 72L100 56M115 72L145 56M160 72L190 56" stroke="#061018" stroke-width="10" stroke-linecap="round" opacity="0.7"/>
        <rect x="22" y="110" width="166" height="16" rx="8" fill="#FFFFFF" opacity="0.10"/>
        <rect x="22" y="140" width="130" height="16" rx="8" fill="#FFFFFF" opacity="0.08"/>
      </g>

      <!-- rating stars -->
      <g transform="translate(1240 270)" fill="#FFFFFF" opacity="0.18">
        <path d="M40 0l11.8 24.2 26.2 3.8-19 18.6 4.5 26.1L40 60.5 16.5 72.7 21 46.6 2 28 28.2 24.2z"/>
        <path transform="translate(92 12) scale(0.8)" d="M40 0l11.8 24.2 26.2 3.8-19 18.6 4.5 26.1L40 60.5 16.5 72.7 21 46.6 2 28 28.2 24.2z"/>
        <path transform="translate(150 24) scale(0.65)" d="M40 0l11.8 24.2 26.2 3.8-19 18.6 4.5 26.1L40 60.5 16.5 72.7 21 46.6 2 28 28.2 24.2z"/>
      </g>

      <text x="520" y="470" fill="#FFFFFF" font-size="84" font-family="system-ui, -apple-system, Segoe UI, Roboto, Arial" font-weight="900" letter-spacing="1">
        DCineVault
      </text>
      <text x="520" y="530" fill="#FFFFFF" opacity="0.76" font-size="32" font-family="system-ui, -apple-system, Segoe UI, Roboto, Arial" font-weight="600">
        Western Movies • TV Shows • Favorites
      </text>
      <text x="520" y="585" fill="#FFFFFF" opacity="0.62" font-size="26" font-family="system-ui, -apple-system, Segoe UI, Roboto, Arial" font-weight="500">
        Fast search, clean UI, and smooth dark / light mode.
      </text>

      <!-- neon badges -->
      <g>
        <rect x="520" y="640" width="150" height="44" rx="18" fill="#00FFD5" fill-opacity="0.14" stroke="#00FFD5" stroke-opacity="0.32"/>
        <text x="562" y="670" fill="#00FFD5" font-size="18" font-family="system-ui, -apple-system, Segoe UI, Roboto, Arial" font-weight="800">Movies</text>

        <rect x="684" y="640" width="140" height="44" rx="18" fill="#8B5CFF" fill-opacity="0.14" stroke="#8B5CFF" stroke-opacity="0.32"/>
        <text x="720" y="670" fill="#B9A0FF" font-size="18" font-family="system-ui, -apple-system, Segoe UI, Roboto, Arial" font-weight="800">Series</text>

        <rect x="838" y="640" width="170" height="44" rx="18" fill="#FF3EBF" fill-opacity="0.14" stroke="#FF3EBF" stroke-opacity="0.32"/>
        <text x="880" y="670" fill="#FF96DC" font-size="18" font-family="system-ui, -apple-system, Segoe UI, Roboto, Arial" font-weight="800">Trending</text>
      </g>

      <!-- subtle gradient line -->
      <path d="M520 612H1380" stroke="url(#neon)" stroke-width="6" stroke-linecap="round" opacity="0.55"/>
    </g>
  </g>
</svg>

